<svg xmlns="http://www.w3.org/2000/svg" width="32" height="32" viewBox="0 0 32 32" fill="none">
<path d="M14.7396 16.9561C14.8413 16.9559 14.9429 16.9557 15.0446 16.9555C15.2559 16.9552 15.4672 16.9556 15.6785 16.9565C15.9461 16.9577 16.2137 16.957 16.4814 16.9558C16.6908 16.9551 16.9002 16.9554 17.1096 16.9559C17.2082 16.956 17.3067 16.9558 17.4053 16.9554C18.9781 16.9496 20.4264 17.3582 21.5769 18.4871C22.5944 19.5401 23.0359 20.9157 23.0156 22.3568C22.9584 23.4791 22.5639 24.4057 21.7455 25.1871C20.6654 26.0896 19.4126 26.0476 18.0829 26.0439C17.9159 26.044 17.7489 26.0442 17.5818 26.0445C17.2329 26.0447 16.884 26.0443 16.5351 26.0434C16.134 26.0423 15.7329 26.0427 15.3317 26.0438C14.9429 26.0448 14.5542 26.0447 14.1654 26.0441C14.0012 26.044 13.8371 26.0441 13.673 26.0446C12.2463 26.0477 11.0761 25.9721 9.99053 24.9341C9.23288 24.0978 8.95723 23.0756 8.98206 21.9642C9.06965 20.4901 9.63706 19.2338 10.7087 18.2139C11.8676 17.2272 13.261 16.9491 14.7396 16.9561Z" fill="#C9D2D2"/>
<path d="M18.9464 6.96435C19.9398 7.80105 20.5474 8.89821 20.7002 10.1962C20.7731 11.4327 20.4928 12.6948 19.6612 13.6452C19.5151 13.8026 19.3629 13.9521 19.2083 14.1012C19.1669 14.1447 19.1254 14.1881 19.0827 14.2329C18.2589 15.0422 17.0092 15.3632 15.8909 15.3614C14.5932 15.3398 13.509 14.788 12.5748 13.913C11.6761 12.9714 11.3154 11.7665 11.3238 10.492C11.3607 9.16617 11.9535 8.02126 12.9063 7.11576C14.6198 5.63049 17.1491 5.59442 18.9464 6.96435Z" fill="#C9D2D2"/>
<path d="M31.4072 22.1384C31.7133 22.3946 31.8768 22.6187 31.9761 23.0059C31.995 23.2515 31.9944 23.4963 31.9935 23.7425C31.9936 23.8139 31.9937 23.8853 31.9938 23.9589C31.9939 24.1099 31.9937 24.2609 31.9931 24.4119C31.9924 24.6402 31.9931 24.8685 31.994 25.0968C31.9952 26.9034 31.7265 28.5637 30.4701 29.9463C30.417 30.0055 30.364 30.0647 30.3093 30.1256C29.2311 31.2669 27.737 31.92 26.1698 31.9832C25.9765 31.9868 25.7832 31.9886 25.5899 31.9894C25.5193 31.9898 25.4487 31.9901 25.376 31.9905C25.2276 31.9911 25.0792 31.9916 24.9308 31.9918C24.7046 31.9925 24.4785 31.9945 24.2524 31.9965C24.1076 31.997 23.9628 31.9973 23.818 31.9976C23.7509 31.9984 23.6838 31.9992 23.6147 32C23.1302 31.9985 22.7461 31.9473 22.3634 31.6242C22.0585 31.2583 21.9838 31.0096 21.9967 30.5364C22.0518 30.1356 22.2416 29.9026 22.5517 29.6558C22.8234 29.5113 23.0368 29.4799 23.3428 29.4777C23.4099 29.477 23.477 29.4763 23.5462 29.4756C23.6185 29.4752 23.6908 29.4747 23.7653 29.4742C23.9193 29.4724 24.0733 29.4705 24.2273 29.4686C24.4694 29.4659 24.7114 29.4635 24.9535 29.4617C25.1877 29.4599 25.4218 29.4569 25.6559 29.4537C25.7272 29.4535 25.7986 29.4533 25.8721 29.4531C26.8681 29.4373 27.7647 29.1006 28.4892 28.4064C29.0564 27.7823 29.4268 26.9786 29.4328 26.1287C29.4339 26.0271 29.4339 26.0271 29.4349 25.9234C29.4354 25.8508 29.4358 25.7782 29.4363 25.7035C29.4382 25.5488 29.44 25.3941 29.442 25.2394C29.4447 24.9963 29.4471 24.7532 29.4488 24.5101C29.4506 24.2749 29.4536 24.0398 29.4568 23.8047C29.457 23.7325 29.4572 23.6603 29.4574 23.586C29.4647 23.1293 29.4965 22.7231 29.7877 22.3496C30.286 21.9469 30.8277 21.8322 31.4072 22.1384Z" fill="#C9D2D2"/>
<path d="M1.66083 22.0237C2.03258 22.1643 2.25975 22.3928 2.44653 22.744C2.51036 22.9462 2.52081 23.1313 2.52234 23.3427C2.52301 23.4099 2.52368 23.477 2.52437 23.5462C2.52485 23.6185 2.52533 23.6907 2.52582 23.7652C2.52766 23.9192 2.52954 24.0733 2.53145 24.2273C2.53414 24.4693 2.53656 24.7114 2.53829 24.9535C2.54011 25.1876 2.54311 25.4217 2.54628 25.6558C2.5465 25.7272 2.54671 25.7986 2.54693 25.8721C2.56268 26.868 2.89938 27.7647 3.59364 28.4892C4.21777 29.0563 5.02145 29.4267 5.8713 29.4328C5.93906 29.4335 6.00682 29.4342 6.07663 29.4348C6.1855 29.4356 6.1855 29.4356 6.29656 29.4363C6.45125 29.4381 6.60595 29.44 6.76064 29.4419C7.00374 29.4446 7.24683 29.447 7.48994 29.4488C7.72509 29.4506 7.96021 29.4536 8.19535 29.4568C8.26753 29.457 8.3397 29.4572 8.41407 29.4574C8.87074 29.4646 9.27695 29.4965 9.65039 29.7877C9.93185 30.1359 10.0633 30.444 10.0335 30.8998C9.98088 31.2597 9.82106 31.4821 9.55883 31.7305C9.14479 32.0065 8.73821 31.9953 8.2575 31.9934C8.18611 31.9936 8.11472 31.9937 8.04117 31.9938C7.89016 31.9939 7.73915 31.9937 7.58813 31.9931C7.35982 31.9924 7.13154 31.9931 6.90323 31.9939C5.09658 31.9952 3.43633 31.7264 2.05368 30.4701C1.99451 30.417 1.93535 30.3639 1.87439 30.3092C0.733115 29.2311 0.0800649 27.737 0.0168625 26.1698C0.0132025 25.9764 0.0114382 25.7832 0.0106342 25.5899C0.010261 25.5193 0.00988777 25.4487 0.00950325 25.376C0.00888805 25.2275 0.00845811 25.0791 0.00820444 24.9307C0.00756628 24.7046 0.00553052 24.4785 0.0034728 24.2523C0.00304541 24.1075 0.00270156 23.9627 0.00244974 23.8179C0.00164133 23.7509 0.000832913 23.6838 0 23.6147C0.0014971 23.1301 0.0526828 22.7461 0.375866 22.3634C0.794625 22.0144 1.12207 21.9497 1.66083 22.0237Z" fill="#C9D2D2"/>
<path d="M23.7425 0.00654729C23.8139 0.00642201 23.8853 0.00629672 23.9588 0.00616764C24.1098 0.00607867 24.2609 0.00631932 24.4119 0.006867C24.6402 0.0075624 24.8685 0.00687598 25.0968 0.00603576C26.9034 0.00478853 28.5637 0.273536 29.9463 1.52988C30.0055 1.58297 30.0647 1.63606 30.1256 1.69076C31.2669 2.76889 31.9199 4.26297 31.9831 5.8302C31.9868 6.02353 31.9886 6.21676 31.9894 6.41012C31.9897 6.48071 31.9901 6.5513 31.9905 6.62403C31.9911 6.77243 31.9915 6.92084 31.9918 7.06924C31.9924 7.29539 31.9945 7.5215 31.9965 7.74764C31.997 7.89245 31.9973 8.03725 31.9976 8.18206C31.9984 8.24911 31.9992 8.31617 32 8.38526C31.9985 8.86928 31.9455 9.25074 31.6282 9.63659C31.2707 9.9276 30.9823 10.0205 30.5241 10.008C30.1375 9.94166 29.8527 9.71837 29.6189 9.41151C29.511 9.15525 29.4797 8.935 29.4777 8.65725C29.477 8.59012 29.4763 8.52299 29.4756 8.45382C29.4752 8.38152 29.4747 8.30923 29.4742 8.23474C29.4723 8.08073 29.4705 7.92672 29.4686 7.7727C29.4659 7.53063 29.4634 7.28856 29.4617 7.04648C29.4599 6.81235 29.4569 6.57825 29.4537 6.34413C29.4535 6.27277 29.4533 6.2014 29.4531 6.12787C29.4373 5.13194 29.1006 4.23527 28.4064 3.51077C27.7822 2.94365 26.9786 2.57326 26.1287 2.56716C26.0609 2.56649 25.9932 2.56582 25.9234 2.56513C25.8145 2.56441 25.8145 2.56441 25.7034 2.56368C25.5488 2.56184 25.3941 2.55996 25.2394 2.55805C24.9963 2.55535 24.7532 2.55294 24.5101 2.55121C24.2749 2.5494 24.0398 2.54639 23.8047 2.54322C23.7325 2.54301 23.6603 2.54279 23.5859 2.54257C23.1293 2.53533 22.7231 2.50352 22.3496 2.21226C22.0682 1.8641 21.9367 1.55596 21.9665 1.1002C22.0191 0.740251 22.1789 0.517898 22.4412 0.269473C22.8552 -0.00655632 23.2618 0.00467721 23.7425 0.00654729Z" fill="#C9D2D2"/>
<path d="M6.41012 0.0106342C6.516 0.0100744 6.516 0.0100744 6.62403 0.00950325C6.77243 0.00888805 6.92084 0.00845811 7.06924 0.00820444C7.29539 0.00756628 7.5215 0.00553052 7.74764 0.0034728C7.89245 0.00304541 8.03725 0.00270156 8.18206 0.00244974C8.28264 0.00123712 8.28264 0.00123712 8.38526 0C8.86928 0.00149539 9.25074 0.0545184 9.63659 0.371774C9.9276 0.729308 10.0205 1.01774 10.008 1.47591C9.94166 1.86249 9.71837 2.14727 9.41151 2.38106C9.15562 2.4888 8.93563 2.52033 8.65829 2.52234C8.55791 2.52334 8.55791 2.52334 8.4555 2.52437C8.34736 2.52509 8.34736 2.52509 8.23705 2.52582C8.08333 2.52766 7.92962 2.52954 7.7759 2.53145C7.53441 2.53414 7.29292 2.53655 7.05142 2.53829C6.81777 2.54011 6.58416 2.54312 6.35053 2.54628C6.2795 2.5465 6.20847 2.54671 6.13529 2.54693C5.10462 2.56323 4.26415 2.88191 3.51308 3.59364C2.94176 4.21272 2.57324 5.02339 2.56716 5.8713C2.56616 5.97294 2.56616 5.97294 2.56513 6.07663C2.56465 6.14921 2.56417 6.22178 2.56368 6.29656C2.56184 6.45125 2.55996 6.60595 2.55805 6.76064C2.55535 7.00374 2.55294 7.24683 2.55121 7.48994C2.5494 7.72509 2.54639 7.96021 2.54322 8.19535C2.54301 8.26753 2.54279 8.3397 2.54257 8.41407C2.53533 8.87074 2.50352 9.27695 2.21226 9.65039C1.8641 9.93185 1.55596 10.0633 1.1002 10.0335C0.740251 9.98088 0.517898 9.82106 0.269473 9.55883C-0.00655632 9.14479 0.00467721 8.73821 0.00654729 8.2575C0.00642201 8.18611 0.00629672 8.11472 0.00616764 8.04117C0.00607867 7.89016 0.00631932 7.73915 0.006867 7.58813C0.0075624 7.35982 0.00687598 7.13154 0.00603576 6.90323C0.00478853 5.09658 0.273536 3.43633 1.52988 2.05368C1.58297 1.99451 1.63606 1.93535 1.69076 1.87439C2.94594 0.545695 4.61473 0.0180991 6.41012 0.0106342Z" fill="#C9D2D2"/>
</svg>